<svg width="34" height="30" viewBox="0 0 34 30" fill="none" xmlns="http://www.w3.org/2000/svg">
<path d="M33.0499 23.25L20.8999 2.25004C19.6999 0.150042 16.8499 -0.599958 14.7499 0.600042C13.9999 1.05004 13.3999 1.65004 13.0999 2.25004L0.949895 23.25C-0.250105 25.35 0.499895 28.2 2.5999 29.4C3.3499 29.85 4.0999 30 4.8499 30H28.9999C31.5499 30 33.4999 27.9 33.4999 25.5C33.6499 24.6 33.3499 23.85 33.0499 23.25ZM16.9999 24C16.0999 24 15.4999 23.4 15.4999 22.5C15.4999 21.6 16.0999 21 16.9999 21C17.8999 21 18.4999 21.6 18.4999 22.5C18.4999 23.4 17.8999 24 16.9999 24ZM18.4999 16.5C18.4999 17.4 17.8999 18 16.9999 18C16.0999 18 15.4999 17.4 15.4999 16.5V10.5C15.4999 9.60004 16.0999 9.00004 16.9999 9.00004C17.8999 9.00004 18.4999 9.60004 18.4999 10.5V16.5Z" fill="#FFC700"/>
</svg>
