<svg width="34" height="34" viewBox="0 0 34 34" fill="none" xmlns="http://www.w3.org/2000/svg">
<g clip-path="url(#clip0_46_601)">
<path d="M33.7225 29.8292L17.9675 2.81881C17.562 2.12229 16.417 2.12229 16.0104 2.81881L0.154599 30.0002C-0.0503942 30.3513 -0.0515267 30.7828 0.151201 31.1351C0.35393 31.4873 0.727674 31.7036 1.13313 31.7036H32.8448C32.8516 31.7036 32.8595 31.7036 32.8674 31.7036C33.4926 31.7036 34 31.1974 34 30.5711C34 30.2868 33.8958 30.0286 33.7225 29.8292ZM3.10492 29.4385L16.989 5.63662L30.873 29.4385H3.10492Z" fill="#EF4BA3"/>
<path d="M12.5199 17.4266C11.846 17.7108 11.2401 18.1186 10.7202 18.6384C10.2004 19.1582 9.79267 19.763 9.50726 20.4392C9.21053 21.1368 9.06104 21.8787 9.06104 22.6431C9.06104 23.4076 9.21053 24.1494 9.50613 24.846C9.79154 25.5232 10.2004 26.128 10.7191 26.6467C11.2389 27.1677 11.8449 27.5754 12.5187 27.8597C13.2187 28.1564 13.9605 28.3059 14.7238 28.3059C15.4872 28.3059 16.229 28.1564 16.9278 27.8597C17.5043 27.6162 17.7738 26.9514 17.5303 26.376C17.2868 25.7996 16.6231 25.53 16.0455 25.7735C15.2074 26.128 14.238 26.128 13.3999 25.7735C12.9967 25.6036 12.6331 25.3579 12.3194 25.043C12.008 24.7327 11.7633 24.3692 11.5912 23.9637C11.4156 23.5469 11.3262 23.1018 11.3262 22.6431C11.3262 22.1844 11.4156 21.7393 11.5934 21.3203C11.7645 20.916 12.0091 20.5524 12.3217 20.241C12.6343 19.9284 12.9978 19.6826 13.4021 19.5116C14.2402 19.1571 15.2097 19.1571 16.0478 19.5116C16.6231 19.754 17.2879 19.4856 17.5326 18.9091C17.7761 18.3337 17.5065 17.6689 16.9301 17.4254C15.5291 16.8331 13.9186 16.8331 12.5199 17.4266Z" fill="#EF4BA3"/>
<path d="M20.3866 28.3059C21.0118 28.3059 21.5191 27.7997 21.5191 27.1734V15.8478C21.5191 15.2215 21.0118 14.7152 20.3866 14.7152C19.7614 14.7152 19.254 15.2215 19.254 15.8478V27.1734C19.254 27.7997 19.7614 28.3059 20.3866 28.3059Z" fill="#EF4BA3"/>
</g>
<defs>
<clipPath id="clip0_46_601">
<rect width="34" height="34" fill="white"/>
</clipPath>
</defs>
</svg>
