<svg width="24" height="32" viewBox="0 0 24 32" fill="none" xmlns="http://www.w3.org/2000/svg">
<path d="M11.9998 32C5.38192 32 0 26.6181 0 20.0002C0 11.6823 10.8318 0.754488 11.2918 0.292495C11.6818 -0.0974985 12.3158 -0.0974985 12.7058 0.292495C13.1678 0.754488 23.9996 11.6823 23.9996 20.0002C23.9996 26.6181 18.6177 32 11.9998 32ZM11.9998 2.44646C9.61185 5.00242 1.99997 13.6523 1.99997 20.0002C1.99997 25.5141 6.4859 30 11.9998 30C17.5137 30 21.9997 25.5141 21.9997 20.0002C21.9997 13.6463 14.3878 5.00242 11.9998 2.44646Z" fill="#28BF10"/>
<path d="M16.375 20.6667H12.125C11.734 20.6667 11.4166 20.3493 11.4166 19.9583C11.4166 19.5673 11.734 19.25 12.125 19.25H16.375C16.766 19.25 17.0833 19.5673 17.0833 19.9583C17.0833 20.3493 16.766 20.6667 16.375 20.6667Z" fill="#28BF10"/>
<path d="M16.375 23.5C15.984 23.5 15.6666 23.1827 15.6666 22.7917V15.7083C15.6666 15.3173 15.984 15 16.375 15C16.766 15 17.0833 15.3173 17.0833 15.7083V22.7917C17.0833 23.1827 16.766 23.5 16.375 23.5Z" fill="#28BF10"/>
<path d="M12.125 23.5C11.734 23.5 11.4166 23.1827 11.4166 22.7917V15.7083C11.4166 15.3173 11.734 15 12.125 15C12.516 15 12.8333 15.3173 12.8333 15.7083V22.7917C12.8333 23.1827 12.516 23.5 12.125 23.5Z" fill="#28BF10"/>
<path d="M6.70833 24C6.31733 24 6 23.6827 6 23.2917V17.625C6 17.234 6.31733 16.9167 6.70833 16.9167H8.125C9.29658 16.9167 10.25 17.8701 10.25 19.0417C10.25 20.2133 9.29658 21.1667 8.125 21.1667H7.41667V23.2917C7.41667 23.6827 7.09933 24 6.70833 24ZM7.41667 19.75H8.125C8.516 19.75 8.83333 19.4327 8.83333 19.0417C8.83333 18.6507 8.516 18.3333 8.125 18.3333H7.41667V19.75Z" fill="#28BF10"/>
</svg>
