<svg width="32" height="32" viewBox="0 0 32 32" fill="none" xmlns="http://www.w3.org/2000/svg">
<path d="M25.9693 3.07519H21.9033C21.6365 3.07519 21.4204 2.859 21.4204 2.59231C21.4204 2.32562 21.6366 2.10944 21.9033 2.10944H25.9693C26.2361 2.10944 26.4522 2.32562 26.4522 2.59231C26.4522 2.859 26.2361 3.07519 25.9693 3.07519Z" fill="#688B96"/>
<path d="M24.699 6.99906H21.9033C21.6365 6.99906 21.4204 6.78287 21.4204 6.51619C21.4204 6.24944 21.6366 6.03331 21.9033 6.03331H24.699C24.9657 6.03331 25.1818 6.2495 25.1818 6.51619C25.1819 6.78287 24.9657 6.99906 24.699 6.99906Z" fill="#688B96"/>
<path d="M25.9693 10.9229H21.9033C21.6365 10.9229 21.4204 10.7067 21.4204 10.44C21.4204 10.1732 21.6366 9.95712 21.9033 9.95712H25.9693C26.2361 9.95712 26.4522 10.1733 26.4522 10.44C26.4523 10.7067 26.2361 10.9229 25.9693 10.9229Z" fill="#688B96"/>
<path d="M24.699 14.8466H21.9033C21.6365 14.8466 21.4204 14.6304 21.4204 14.3638C21.4204 14.0971 21.6366 13.8809 21.9033 13.8809H24.699C24.9657 13.8809 25.1818 14.0971 25.1818 14.3638C25.1818 14.6304 24.9657 14.8466 24.699 14.8466Z" fill="#688B96"/>
<path d="M25.9693 18.7704H21.9033C21.6365 18.7704 21.4204 18.5543 21.4204 18.2876C21.4204 18.0208 21.6366 17.8047 21.9033 17.8047H25.9693C26.2361 17.8047 26.4522 18.0209 26.4522 18.2876C26.4523 18.5543 26.2361 18.7704 25.9693 18.7704Z" fill="#688B96"/>
<path d="M16.7963 19.345V4.21794C16.7963 1.88844 14.9079 0 12.5784 0C10.2489 0 8.36041 1.88844 8.36041 4.21794V19.345C6.65273 20.6276 5.54785 22.6693 5.54785 24.9694C5.54779 28.8523 8.69548 32 12.5784 32C16.4612 32 19.6089 28.8523 19.6089 24.9695C19.6089 22.6693 18.504 20.6276 16.7963 19.345Z" fill="#F1FAFF"/>
<path d="M16.7963 19.345V4.21794C16.7963 1.88844 14.9078 0 12.5783 0C12.1693 0 11.774 0.0581875 11.4 0.166812C13.1561 0.676687 14.4396 2.29744 14.4396 4.21794V19.345C16.1473 20.6276 17.2522 22.6693 17.2522 24.9694C17.2522 28.4507 14.7219 31.3411 11.4 31.9016C11.7831 31.9662 12.1768 32 12.5783 32C16.4612 32 19.6088 28.8523 19.6088 24.9695C19.6088 22.6693 18.504 20.6276 16.7963 19.345Z" fill="#DCF5FF"/>
<path d="M13.8642 20.8516V4.32926C13.8642 3.61907 13.2885 3.04338 12.5783 3.04338C11.8681 3.04338 11.2924 3.61907 11.2924 4.32926V20.8517C9.52545 21.4169 8.26451 23.1138 8.36607 25.0908C8.47657 27.2417 10.2256 28.9815 12.377 29.0815C14.798 29.194 16.7962 27.2645 16.7962 24.8683C16.7963 22.9874 15.5646 21.3955 13.8642 20.8516Z" fill="#7BA0B0"/>
<path d="M13.8642 20.2324V10.4399H11.2924V20.2328C11.2924 20.5851 11.0901 20.9064 10.7718 21.0575C9.30721 21.7526 8.30659 23.2658 8.36259 25.0074C8.43284 27.1917 10.194 28.9801 12.377 29.0816C14.798 29.1941 16.7962 27.2646 16.7962 24.8683C16.7962 23.1833 15.8077 21.7301 14.3792 21.0548C14.0626 20.905 13.8642 20.5826 13.8642 20.2324Z" fill="#FA4954"/>
<path d="M14.3792 21.0547C14.0627 20.9051 13.8642 20.5826 13.8642 20.2325V10.4399H11.2924V19.9117C11.2924 19.9936 11.3534 20.8479 11.7442 21.0547C13.1408 21.7938 14.1613 23.1832 14.1613 24.8683C14.1613 26.7369 12.9461 28.3218 11.2628 28.8757C11.6163 28.9925 11.99 29.0636 12.377 29.0816C14.798 29.1941 16.7962 27.2646 16.7962 24.8683C16.7963 23.1832 15.8077 21.7301 14.3792 21.0547Z" fill="#FA2A3B"/>
</svg>
